<?xml version="1.0" standalone="no"?>
<!DOCTYPE svg PUBLIC "-//W3C//DTD SVG 20010904//EN"
 "http://www.w3.org/TR/2001/REC-SVG-20010904/DTD/svg10.dtd">
<svg version="1.0" xmlns="http://www.w3.org/2000/svg"
 width="2963.000000pt" height="463.000000pt" viewBox="0 0 2963.000000 463.000000"
 preserveAspectRatio="xMidYMid meet">

<g transform="translate(0.000000,463.000000) scale(0.100000,-0.100000)"
fill="#000000" stroke="none">
<path d="M5271 4609 c-123 -21 -200 -113 -260 -314 -20 -67 -26 -91 -49 -230
-38 -217 -48 -436 -29 -580 23 -170 74 -269 164 -320 40 -23 64 -28 143 -32
l96 -5 80 40 c73 37 84 39 124 31 118 -22 210 2 282 74 l35 35 17 -53 c17 -55
64 -107 113 -126 36 -14 110 -11 141 5 63 33 131 136 173 259 l22 69 24 -59
c42 -105 53 -121 94 -137 102 -41 184 8 246 147 9 20 20 37 23 37 3 0 12 -34
19 -76 22 -131 58 -195 129 -226 51 -23 105 -19 170 12 42 21 158 133 168 162
8 27 24 21 39 -14 33 -78 100 -139 190 -174 68 -26 247 -27 322 -1 96 33 162
76 215 141 56 68 68 76 68 49 0 -28 69 -113 123 -150 36 -26 70 -38 130 -50
178 -34 347 13 465 128 l42 41 0 -61 c0 -52 4 -66 25 -86 26 -27 80 -34 115
-15 28 15 43 74 36 139 -15 132 34 292 118 388 53 59 143 108 182 99 44 -11
49 -43 24 -147 -24 -100 -39 -335 -26 -403 10 -53 37 -76 90 -76 68 0 71 9 71
189 1 129 5 172 24 251 22 88 27 98 78 152 60 62 125 95 167 84 44 -11 48 -33
37 -191 -21 -276 -10 -375 47 -437 50 -54 146 -61 234 -18 49 25 142 112 164
153 8 15 18 27 23 27 4 0 16 -19 27 -41 25 -58 92 -121 161 -154 113 -54 297
-44 431 24 112 56 242 229 270 359 9 39 8 44 -15 62 -47 37 -64 28 -118 -62
-69 -115 -153 -198 -230 -227 -75 -29 -157 -37 -215 -21 -82 22 -185 159 -147
197 10 10 22 9 62 -3 117 -36 270 5 342 93 76 93 86 243 21 335 -22 32 -106
75 -164 84 -106 16 -252 -36 -331 -118 -38 -40 -98 -166 -107 -227 -9 -58 -45
-136 -106 -226 -57 -85 -92 -115 -131 -115 -77 0 -89 79 -48 321 23 140 24
173 4 230 -54 152 -248 172 -397 40 -51 -45 -80 -51 -101 -21 -60 85 -270 47
-365 -67 -20 -24 -40 -43 -45 -43 -5 0 -6 34 -2 75 5 52 4 84 -5 105 -12 28
-16 30 -65 30 -45 0 -55 -4 -69 -25 -18 -27 -32 -122 -44 -282 -5 -68 -12 -99
-27 -120 -11 -15 -27 -41 -35 -58 -23 -45 -127 -140 -192 -175 -75 -40 -176
-51 -242 -26 -54 21 -111 81 -125 133 -16 58 -13 179 6 241 19 60 77 133 126
158 67 35 157 -8 157 -76 0 -73 37 -102 104 -80 37 12 43 22 56 89 11 63 -11
131 -55 170 -62 54 -92 64 -190 65 -79 1 -98 -2 -153 -28 -109 -50 -207 -185
-233 -319 -12 -64 -87 -193 -149 -255 -82 -82 -214 -126 -317 -104 -70 14 -98
34 -140 96 -31 46 -43 99 -25 110 5 3 30 -1 57 -9 70 -21 154 -19 222 7 140
52 223 213 178 347 -22 67 -47 96 -108 129 -46 23 -62 26 -145 25 -83 -1 -100
-4 -157 -32 -124 -61 -182 -142 -228 -321 -34 -129 -130 -281 -202 -320 -35
-19 -89 -5 -104 26 -16 37 -28 232 -25 399 2 78 -1 154 -6 171 -10 31 -44 54
-79 54 -24 0 -60 -36 -67 -68 -3 -15 -17 -70 -31 -122 -14 -52 -29 -113 -33
-135 -12 -56 -66 -168 -94 -194 -35 -33 -67 -24 -91 24 -18 36 -19 62 -20 266
0 254 -1 259 -66 259 -62 0 -74 -23 -114 -220 -27 -132 -84 -318 -118 -388
-46 -95 -101 -127 -141 -83 -21 23 -39 139 -31 206 7 58 -8 94 -44 107 -20 7
-29 3 -59 -29 -19 -21 -54 -74 -77 -118 -35 -67 -49 -84 -87 -104 -31 -17 -52
-22 -71 -17 -33 8 -34 27 -7 90 25 59 44 204 36 273 -19 158 -94 247 -239 278
-40 8 -43 28 -10 77 58 87 103 236 103 343 0 104 -38 162 -127 195 -30 11 -57
19 -61 19 -4 -1 -31 -5 -61 -10z m70 -191 c22 -41 5 -136 -45 -255 -44 -103
-121 -229 -159 -261 -48 -40 -44 42 14 278 25 102 83 232 113 252 23 16 65 8
77 -14z m92 -594 c6 -3 23 -19 37 -37 22 -27 25 -43 29 -120 4 -116 -10 -164
-62 -213 -30 -28 -46 -54 -55 -87 -10 -41 -18 -50 -49 -64 -49 -20 -135 -13
-164 13 -78 71 -102 268 -45 367 58 98 162 162 249 152 26 -3 53 -8 60 -11z
m2222 -19 c36 -35 35 -102 -1 -145 -43 -51 -78 -63 -158 -57 -113 10 -133 53
-66 146 58 79 174 108 225 56z m2963 19 c53 -15 68 -106 26 -161 -39 -52 -77
-67 -153 -60 -84 7 -100 14 -107 44 -7 26 15 83 45 119 40 49 125 75 189 58z"/>
<path d="M185 4586 c-81 -37 -165 -143 -165 -206 0 -29 35 -60 70 -60 22 0 36
9 57 37 47 61 74 83 104 83 52 0 75 -18 87 -68 11 -47 -8 -183 -63 -462 -47
-240 -68 -448 -55 -539 20 -142 64 -200 170 -226 185 -45 325 18 452 206 50
74 128 231 128 257 0 5 7 15 15 22 13 11 15 5 15 -46 0 -151 36 -322 80 -384
27 -38 96 -70 152 -70 126 0 241 92 329 263 58 113 69 178 34 203 -45 33 -80
-1 -165 -157 -53 -97 -102 -139 -161 -139 -42 0 -63 16 -83 64 -50 120 -53
443 -6 782 21 154 27 222 20 240 -13 34 -74 60 -107 45 -26 -12 -62 -81 -63
-119 0 -12 -6 -48 -14 -80 -8 -31 -22 -88 -30 -127 -65 -289 -185 -582 -284
-695 -61 -70 -133 -110 -198 -110 -43 0 -54 4 -80 31 l-29 30 1 147 c1 111 6
171 23 247 38 173 101 537 101 583 0 63 -27 160 -55 197 -57 74 -182 97 -280
51z"/>
<path d="M12088 4594 c-4 -3 -66 -6 -137 -5 -136 1 -171 -6 -209 -42 -46 -42
-57 -76 -56 -172 0 -84 3 -95 41 -175 22 -47 61 -114 87 -149 57 -81 59 -96 9
-74 -27 11 -50 13 -83 8 -25 -4 -54 -9 -65 -10 -11 -1 -33 -7 -48 -14 -16 -6
-31 -11 -35 -11 -8 0 -106 -82 -111 -94 -2 -4 -12 -17 -22 -27 -23 -23 -71
-127 -90 -194 -9 -31 -14 -94 -13 -166 1 -101 4 -122 26 -171 29 -64 92 -131
140 -151 87 -36 214 -25 317 28 51 25 63 27 164 26 99 -2 112 0 150 22 23 14
51 34 61 46 26 28 33 27 45 -12 6 -18 26 -48 44 -65 100 -97 265 -82 391 36
l51 47 3 -39 c2 -26 -4 -54 -20 -84 -20 -39 -37 -54 -120 -101 -120 -69 -173
-117 -200 -178 -32 -72 -29 -141 7 -194 41 -58 99 -83 176 -76 154 14 261 137
294 341 13 85 15 89 72 153 91 103 130 151 154 189 l21 35 34 -53 c20 -33 51
-64 81 -83 44 -27 56 -30 133 -30 73 0 92 4 136 27 28 15 66 39 83 54 41 35
56 22 47 -40 -10 -62 -34 -88 -134 -143 -115 -62 -185 -129 -212 -201 -35 -94
-11 -173 66 -218 39 -23 56 -27 116 -25 158 5 261 115 298 320 17 93 24 107
98 186 37 40 90 107 117 148 28 42 54 76 58 76 4 1 14 -14 22 -32 24 -58 92
-124 163 -159 64 -32 72 -33 182 -33 117 0 191 16 249 53 19 11 26 12 29 3 9
-26 68 -85 99 -97 43 -18 117 -18 153 1 56 29 130 142 168 258 20 61 32 81 32
53 0 -9 16 -50 35 -90 31 -65 40 -76 75 -90 22 -9 55 -16 73 -16 56 0 126 62
166 148 14 29 27 52 31 52 3 0 11 -36 18 -79 13 -96 49 -170 98 -208 31 -23
46 -28 93 -27 32 1 75 10 101 22 52 23 140 109 171 167 12 22 26 47 33 55 26
34 78 151 83 188 4 33 2 42 -18 56 -38 26 -65 20 -94 -21 -14 -21 -25 -41 -25
-46 0 -4 -17 -36 -39 -70 -21 -34 -42 -72 -45 -84 -10 -31 -94 -103 -122 -103
-12 0 -34 4 -47 9 -38 15 -48 83 -52 361 l-4 245 -26 23 c-43 37 -93 26 -113
-25 -7 -15 -21 -64 -31 -108 -57 -231 -93 -327 -139 -368 -32 -29 -64 -18 -87
28 -18 36 -20 61 -21 267 -1 167 -5 232 -14 243 -7 9 -29 15 -51 15 -49 0 -74
-26 -89 -94 -6 -28 -18 -82 -26 -121 -15 -69 -42 -174 -69 -268 -8 -27 -29
-82 -49 -122 -37 -79 -77 -112 -120 -101 -36 9 -48 51 -51 179 -3 120 -10 141
-45 150 -46 12 -71 -35 -86 -157 l-7 -58 -52 -25 c-114 -52 -238 -54 -305 -5
-60 44 -112 158 -80 177 5 3 30 -1 55 -10 115 -39 246 -7 332 81 61 63 77 105
77 204 0 64 -4 81 -26 116 -52 80 -118 110 -242 107 -76 -1 -96 -5 -150 -32
-119 -58 -188 -154 -226 -313 -13 -54 -35 -105 -74 -170 -136 -228 -161 -247
-151 -115 4 45 10 116 15 157 5 41 12 134 16 205 6 124 5 131 -16 158 -25 32
-52 47 -135 77 -168 60 -352 21 -456 -98 -41 -47 -95 -160 -110 -231 -6 -31
-15 -60 -19 -66 -4 -5 -23 -39 -42 -75 -57 -107 -128 -210 -145 -210 -18 0
-19 -24 17 345 11 116 20 236 20 268 0 74 -20 97 -86 97 -41 0 -46 -3 -58 -32
-8 -18 -21 -87 -30 -153 -30 -214 -46 -287 -79 -349 -56 -105 -126 -156 -213
-156 -39 0 -47 4 -65 33 -18 29 -20 43 -15 142 3 61 12 151 21 200 28 163 29
225 5 263 -28 44 -80 65 -149 60 -46 -4 -59 -10 -83 -37 -20 -22 -28 -41 -26
-59 3 -23 10 -29 48 -38 l45 -11 3 -54 c4 -64 -14 -193 -32 -229 -68 -132
-100 -176 -161 -216 -32 -21 -79 -11 -72 14 3 9 17 58 31 107 41 136 46 299
13 420 -31 116 -61 193 -86 219 -11 12 -31 43 -45 70 -14 27 -30 54 -35 60
-12 16 -41 119 -41 149 0 48 20 56 138 54 101 -2 110 0 155 26 41 24 47 32 47
61 0 17 -6 40 -12 48 -14 18 -79 34 -90 22z m-269 -777 c56 -20 72 -51 78
-158 5 -82 3 -102 -15 -141 -12 -28 -32 -53 -51 -64 -23 -14 -35 -30 -42 -60
-6 -23 -23 -57 -39 -75 -26 -31 -32 -34 -82 -33 -105 3 -144 56 -142 195 2
135 51 254 128 312 17 13 38 26 46 30 25 9 83 7 119 -6z m1808 -12 c51 -34 58
-59 45 -159 -16 -131 -65 -243 -126 -290 -40 -30 -128 -53 -168 -43 -75 19
-118 124 -93 230 18 76 62 167 98 206 49 51 122 83 176 76 25 -3 55 -12 68
-20z m868 0 c36 -35 35 -109 0 -148 -45 -48 -81 -60 -159 -54 -112 10 -131 49
-68 142 57 82 175 113 227 60z m-1775 -877 c-1 -61 -75 -168 -116 -168 -86 0
-65 85 40 157 57 39 76 42 76 11z m903 8 c9 -24 -32 -119 -64 -148 -28 -27
-60 -34 -93 -22 -37 14 -8 70 73 139 55 47 75 54 84 31z"/>
<path d="M23897 4063 c-23 -26 -30 -68 -17 -94 7 -12 13 -57 12 -98 0 -62 -7
-95 -36 -176 -97 -266 -241 -408 -427 -422 -85 -6 -130 10 -187 68 -43 44 -56
88 -56 189 0 105 26 177 85 239 50 51 81 64 135 56 54 -8 76 -33 82 -96 6 -61
33 -85 86 -75 46 9 63 32 72 94 13 101 -21 164 -116 214 -37 19 -60 23 -135
23 -86 0 -94 -2 -164 -39 -80 -43 -126 -94 -179 -201 -35 -71 -44 -126 -43
-253 0 -117 26 -193 88 -262 60 -67 98 -88 188 -105 102 -20 157 -19 248 5
129 33 226 103 301 219 52 80 139 281 162 375 21 86 40 106 97 106 71 0 72 -6
23 -111 -63 -132 -88 -244 -75 -335 13 -97 26 -133 66 -182 61 -75 122 -94
248 -77 86 11 163 53 224 122 28 31 51 61 51 65 0 21 17 4 29 -27 16 -46 55
-91 105 -123 32 -20 57 -26 118 -30 113 -7 165 14 250 102 l68 69 10 -29 c25
-64 71 -123 107 -135 42 -13 110 -6 160 17 47 23 135 104 158 148 11 20 22 36
25 36 4 0 14 -17 23 -37 48 -108 137 -167 281 -185 166 -21 295 18 419 125
l58 50 -6 -39 c-4 -23 -1 -56 7 -79 15 -45 52 -62 111 -51 48 9 57 36 57 169
0 121 12 180 54 269 39 81 86 131 161 169 62 32 66 33 92 19 37 -21 39 -50 12
-168 -19 -78 -23 -127 -24 -249 0 -147 1 -152 24 -177 19 -20 34 -26 67 -26
70 0 73 8 72 183 -1 150 14 249 53 348 14 37 97 112 145 133 51 22 82 18 106
-14 17 -23 17 -32 7 -105 -6 -44 -12 -143 -12 -220 -3 -199 19 -267 97 -307
88 -45 217 -2 308 104 l50 57 29 -59 c50 -99 131 -134 289 -123 82 5 103 10
155 39 57 31 66 33 150 32 110 -2 148 15 222 96 l51 55 21 -45 c88 -187 349
-249 589 -139 100 46 207 173 261 313 27 68 26 97 -1 116 -45 32 -63 21 -114
-61 -67 -109 -98 -147 -152 -186 -122 -88 -273 -100 -364 -30 -35 28 -88 108
-88 134 1 36 15 41 64 25 61 -21 145 -20 215 1 43 14 70 31 117 78 55 54 63
68 74 120 25 120 -6 218 -83 267 -61 38 -119 51 -201 43 -137 -13 -254 -96
-311 -220 -17 -38 -37 -96 -43 -127 -17 -90 -90 -223 -148 -271 -44 -37 -70
-41 -93 -18 -17 17 -18 25 -10 53 15 52 10 88 -19 157 -25 59 -32 67 -87 97
-54 31 -68 34 -141 34 -83 0 -141 -16 -177 -48 -35 -31 -36 1 -5 108 17 58 32
128 35 157 4 47 2 53 -21 68 -39 26 -90 13 -114 -28 -22 -36 -56 -152 -78
-270 -20 -107 -97 -249 -182 -339 -43 -45 -89 -51 -123 -17 -20 20 -21 28 -15
124 3 56 13 140 21 186 33 188 11 273 -85 322 -95 48 -206 27 -302 -57 -56
-49 -91 -58 -107 -27 -48 90 -291 44 -370 -70 -38 -56 -53 -51 -45 14 4 28 6
54 6 57 -1 85 -14 104 -73 102 -79 -3 -88 -26 -109 -262 -12 -134 -12 -135
-57 -207 -54 -88 -133 -162 -211 -199 -48 -24 -70 -28 -143 -28 -77 -1 -89 2
-127 26 -122 81 -138 302 -32 444 38 50 89 84 128 84 69 0 112 -47 112 -123 0
-29 5 -37 29 -47 38 -15 88 -5 106 23 23 38 29 127 10 172 -23 54 -41 73 -98
102 -35 17 -71 26 -130 29 -80 6 -84 5 -162 -34 -44 -22 -91 -52 -106 -68 -60
-68 -112 -168 -125 -241 -13 -80 -113 -254 -178 -310 -45 -40 -83 -43 -115 -9
-22 23 -23 33 -22 143 1 110 13 305 27 413 4 35 0 52 -15 78 -18 28 -26 32
-64 32 -33 0 -49 -6 -66 -24 l-23 -24 -63 17 c-80 22 -188 15 -260 -17 -101
-46 -194 -167 -230 -302 -40 -153 -163 -316 -261 -347 -97 -30 -155 7 -178
114 -7 32 12 148 38 219 19 56 60 131 96 179 57 76 90 130 90 148 0 30 -17 53
-50 67 -27 11 -37 9 -104 -23 -72 -34 -78 -35 -138 -27 -58 8 -67 13 -111 60
-39 40 -56 50 -81 50 -19 0 -40 -8 -49 -17z m5258 -256 c59 -51 22 -170 -61
-197 -40 -14 -142 -7 -174 10 -51 27 3 150 83 189 57 28 118 28 152 -2z
m-4005 -2 c36 -19 44 -48 36 -129 -25 -244 -128 -386 -279 -386 -66 0 -117 76
-117 175 0 127 88 287 185 338 39 21 137 22 175 2z m3109 -270 c36 -42 38 -53
11 -104 -10 -21 -24 -59 -31 -85 -13 -51 -35 -67 -114 -79 -34 -5 -48 -2 -78
18 -135 92 -51 283 124 285 53 0 59 -3 88 -35z"/>
<path d="M4151 3988 c-33 -12 -48 -61 -60 -198 -16 -176 -40 -298 -68 -347
-30 -51 -96 -113 -122 -113 -47 0 -51 8 -51 96 0 97 -18 153 -64 202 -46 50
-81 64 -170 69 -77 4 -84 3 -148 -30 -50 -26 -68 -31 -72 -21 -5 13 18 116 30
136 15 23 34 135 28 161 -10 48 -85 64 -121 25 -27 -30 -84 -215 -98 -318 -11
-76 -111 -256 -173 -311 -46 -40 -71 -46 -115 -30 -38 15 -48 83 -52 361 l-4
245 -26 23 c-43 37 -93 26 -113 -25 -7 -15 -21 -64 -31 -108 -57 -231 -93
-327 -139 -368 -32 -29 -64 -18 -87 28 -18 36 -20 61 -21 267 -1 167 -5 232
-14 243 -7 9 -29 15 -51 15 -49 0 -74 -26 -89 -94 -6 -28 -18 -82 -26 -121
-15 -69 -42 -174 -69 -268 -8 -27 -29 -82 -49 -122 -37 -79 -77 -112 -120
-101 -36 9 -48 51 -51 179 -3 120 -10 141 -45 150 -53 14 -83 -57 -84 -198 -1
-186 76 -295 209 -295 25 0 59 7 75 15 56 29 130 142 168 258 20 61 32 81 32
53 0 -9 16 -50 35 -90 31 -65 40 -76 75 -90 22 -9 55 -16 73 -16 56 0 126 62
166 148 14 29 27 52 31 52 3 0 11 -36 18 -79 13 -96 49 -170 98 -208 31 -23
46 -28 93 -27 90 2 147 34 233 131 l37 42 20 -42 c30 -63 85 -113 143 -133 81
-26 201 -15 308 30 71 30 93 35 131 30 61 -8 149 18 193 56 18 17 39 30 45 30
6 0 25 -25 42 -56 39 -69 60 -82 136 -90 147 -16 276 92 384 319 48 102 36
157 -34 157 -32 0 -46 -18 -100 -125 -28 -56 -63 -107 -92 -135 -40 -40 -51
-45 -90 -45 -55 0 -71 19 -79 96 -6 53 11 261 35 434 11 78 6 116 -19 138 -22
19 -63 26 -91 15z m-496 -448 c28 -26 33 -73 11 -105 -7 -11 -19 -44 -26 -73
-14 -62 -51 -92 -110 -92 -93 0 -148 46 -157 134 -5 42 -3 47 43 96 61 65 73
71 151 67 49 -2 68 -8 88 -27z"/>
<path d="M18087 3970 c-30 -24 -46 -24 -107 -6 -59 18 -177 7 -242 -22 -101
-44 -190 -159 -227 -290 -11 -41 -31 -92 -44 -115 -13 -23 -41 -71 -61 -107
-54 -94 -116 -174 -127 -163 -6 6 -5 53 1 119 27 292 34 441 22 470 -36 86
-266 147 -412 110 -174 -44 -282 -193 -311 -424 -12 -93 -11 -111 4 -170 23
-86 59 -141 120 -183 47 -32 54 -34 136 -34 75 0 93 4 141 29 30 15 67 39 82
53 36 34 52 22 44 -34 -9 -71 -30 -94 -129 -148 -162 -87 -227 -168 -227 -284
0 -106 71 -165 192 -162 105 3 167 38 228 126 32 46 80 182 80 227 0 46 19 80
79 143 32 33 83 95 115 138 l58 79 23 -49 c42 -92 128 -143 240 -142 104 0
186 39 243 116 38 51 62 53 74 7 4 -17 25 -50 45 -73 47 -52 92 -61 177 -37
48 14 69 29 130 89 l72 72 -8 -85 c-4 -47 -13 -132 -19 -190 -7 -58 -13 -121
-15 -140 -1 -19 -7 -69 -13 -110 -21 -149 -11 -173 67 -168 72 5 79 21 105
248 12 107 27 204 34 215 10 17 26 21 105 26 76 5 107 13 173 42 79 35 81 35
181 30 92 -5 106 -4 148 17 26 12 69 43 95 69 l48 47 25 -57 c19 -43 36 -64
69 -86 40 -26 50 -28 134 -27 70 1 100 6 130 22 55 28 116 78 138 113 24 36
45 37 57 2 40 -111 62 -132 145 -140 68 -7 124 18 205 93 l58 54 4 -62 c4 -48
9 -65 27 -79 25 -21 81 -25 111 -9 28 15 43 73 36 143 -14 134 39 298 126 393
48 52 139 98 174 90 44 -11 49 -43 24 -147 -23 -100 -39 -335 -26 -403 10 -53
37 -76 90 -76 67 0 71 9 71 184 0 123 5 169 24 251 22 94 26 102 78 157 60 62
125 95 167 84 44 -11 48 -33 37 -191 -15 -202 -14 -297 5 -358 31 -95 91 -135
189 -123 69 8 130 43 199 116 32 33 59 60 62 60 2 0 4 -7 4 -17 0 -30 48 -99
87 -125 58 -39 122 -50 233 -40 80 8 103 14 145 40 47 29 56 31 145 30 78 -1
102 3 136 20 127 65 276 343 205 382 -30 15 -66 12 -83 -7 -8 -10 -32 -50 -52
-88 -65 -126 -138 -191 -185 -165 -17 8 -18 19 -14 92 4 76 2 87 -24 138 -22
43 -40 61 -83 87 -50 29 -63 32 -138 33 -84 0 -138 -14 -174 -46 -9 -9 -22
-13 -28 -9 -13 8 -13 10 29 160 37 133 38 159 9 179 -47 33 -114 8 -136 -51
-18 -49 -60 -216 -67 -267 -11 -80 -128 -285 -191 -335 -34 -26 -78 -27 -104
-1 -17 17 -20 33 -20 103 0 45 9 134 20 197 24 139 25 174 5 231 -54 152 -248
172 -397 40 -51 -45 -80 -51 -101 -21 -60 86 -276 45 -369 -70 -17 -22 -35
-40 -41 -40 -5 0 -6 31 -2 75 5 52 4 84 -5 105 -12 28 -16 30 -65 30 -45 0
-55 -4 -69 -25 -18 -27 -32 -120 -43 -270 -7 -103 -31 -160 -119 -281 -57 -78
-98 -104 -142 -88 -43 15 -52 58 -46 224 3 80 9 163 14 185 5 22 12 79 16 127
6 84 6 87 -19 112 -31 31 -86 35 -109 9 -9 -10 -21 -36 -26 -58 -12 -46 -32
-206 -32 -255 0 -47 -38 -164 -74 -228 -55 -98 -173 -158 -241 -122 -48 26
-57 168 -19 325 17 72 30 251 20 289 -10 39 -74 76 -135 76 -70 0 -97 -13
-121 -59 l-20 -41 20 -20 c11 -11 29 -20 39 -20 44 0 51 -10 51 -69 0 -32 -7
-80 -15 -107 -8 -27 -15 -56 -15 -65 0 -22 -84 -172 -123 -222 -37 -45 -99
-81 -128 -72 -24 8 -24 31 0 71 38 63 71 194 72 289 1 100 -8 139 -43 187 -34
48 -67 77 -117 100 -38 17 -57 20 -123 15 -91 -7 -138 -29 -220 -100 -66 -57
-88 -57 -88 -1 0 55 -27 104 -59 105 -47 2 -66 -2 -84 -20 -23 -22 -23 -25 -7
-202 l12 -146 -37 -74 c-60 -121 -65 -130 -119 -186 -62 -63 -101 -71 -135
-27 -18 23 -21 41 -21 140 0 62 5 171 12 241 18 190 17 237 -6 262 -25 28 -84
28 -119 1z m-986 -172 c18 -14 31 -35 35 -56 15 -80 -32 -266 -87 -343 -33
-47 -90 -78 -155 -85 -58 -6 -62 -5 -97 25 -45 40 -61 87 -55 165 6 75 57 198
101 245 50 53 122 83 181 76 26 -3 61 -16 77 -27z m1909 17 c45 -23 60 -62 60
-153 0 -113 -22 -173 -81 -225 -26 -23 -56 -61 -68 -84 -26 -53 -60 -79 -119
-91 -61 -13 -99 -5 -119 25 -13 20 -15 44 -10 145 7 112 9 124 43 188 60 114
129 180 214 201 40 11 49 10 80 -6z m-1000 -10 c40 -20 46 -52 32 -160 -29
-229 -125 -355 -273 -355 -81 0 -136 117 -111 238 23 110 101 235 170 272 46
24 141 26 182 5z m4174 -256 c41 -33 46 -57 24 -114 -11 -27 -26 -71 -34 -96
-14 -48 -25 -54 -119 -73 -57 -12 -139 64 -139 128 0 97 82 175 185 176 43 0
63 -5 83 -21z m-5100 -614 c8 -22 -31 -115 -62 -147 -43 -47 -124 -31 -108 20
9 26 130 142 149 142 8 0 17 -7 21 -15z"/>
<path d="M20129 2011 l-24 -19 3 -529 c3 -481 5 -530 20 -545 29 -29 96 -28
112 2 26 49 45 399 45 810 -1 199 -1 206 -25 250 -23 41 -29 45 -66 48 -29 2
-48 -3 -65 -17z"/>
<path d="M11010 1403 c-44 -7 -81 -44 -83 -83 -2 -33 0 -36 46 -49 51 -16 50
-15 47 -100 -5 -124 -73 -292 -159 -393 -60 -70 -132 -82 -161 -28 -11 21 -15
220 -5 310 27 256 27 276 11 309 -15 28 -21 31 -63 31 -34 0 -53 -6 -70 -22
-22 -21 -26 -21 -71 -8 -26 8 -78 16 -116 18 -57 3 -81 -1 -136 -22 -111 -44
-209 -158 -246 -288 -27 -95 -115 -257 -171 -315 -52 -54 -71 -61 -116 -44
-17 7 -26 20 -30 43 -7 41 4 196 28 389 10 81 15 163 11 183 -9 47 -40 63 -93
50 -33 -8 -40 -15 -55 -57 -10 -27 -23 -94 -30 -149 -14 -127 -13 -126 -177
-129 -112 -3 -125 -1 -138 16 -7 11 -12 29 -9 40 9 40 18 224 12 249 -11 44
-117 48 -144 5 -7 -11 -17 -68 -22 -127 -38 -446 -43 -626 -17 -665 19 -29 56
-38 102 -26 28 8 34 16 43 52 6 23 11 89 12 146 1 99 9 137 34 153 6 4 64 8
128 8 90 0 120 -3 131 -15 10 -9 18 -46 22 -102 9 -99 39 -179 81 -212 22 -17
40 -21 98 -21 112 0 177 39 262 156 12 16 23 27 25 24 2 -3 16 -27 30 -55 18
-35 43 -62 83 -90 55 -38 58 -39 144 -39 123 1 182 30 269 137 29 34 41 34 49
0 11 -46 64 -114 99 -129 55 -23 143 -1 215 53 33 24 71 58 84 75 l24 31 7
-24 c13 -40 64 -108 94 -123 87 -46 234 -20 306 54 21 22 46 40 55 40 8 0 24
-16 34 -34 32 -60 55 -74 127 -82 61 -6 72 -4 131 24 36 17 90 54 121 82 51
46 77 56 77 29 0 -5 10 -30 22 -55 26 -56 62 -74 149 -74 93 0 134 30 279 203
4 5 15 -9 25 -30 79 -169 280 -240 505 -177 80 23 128 50 190 110 31 30 59 54
62 54 3 0 10 -18 17 -40 14 -48 53 -95 95 -117 41 -22 137 -22 170 0 64 42
132 148 163 254 17 59 33 82 33 48 0 -8 4 -23 10 -33 5 -9 18 -38 29 -64 22
-53 61 -83 122 -93 62 -11 132 41 181 135 42 80 41 80 54 -8 23 -159 90 -244
191 -244 69 1 135 33 199 98 31 30 57 54 58 52 1 -1 8 -18 15 -35 8 -18 30
-48 51 -67 98 -88 259 -70 372 42 56 54 73 49 62 -17 -10 -66 -41 -100 -139
-156 -169 -98 -232 -180 -223 -290 8 -98 78 -154 191 -155 80 0 141 26 199 87
46 48 96 153 103 218 13 112 13 112 107 218 100 113 219 303 239 380 15 63 2
97 -39 97 -36 0 -69 -35 -115 -122 -40 -76 -123 -204 -139 -214 -14 -9 -29 17
-23 41 13 56 55 566 50 603 -5 34 -12 45 -37 58 -40 21 -91 11 -106 -19 -6
-12 -18 -76 -27 -142 -30 -217 -47 -299 -76 -357 -55 -109 -146 -175 -226
-163 -67 10 -76 30 -70 172 2 65 13 170 23 233 30 191 22 240 -49 277 -42 22
-126 22 -160 0 -15 -9 -34 -31 -42 -47 -21 -42 -7 -66 45 -75 52 -9 57 -29 41
-160 -9 -80 -18 -114 -46 -168 -88 -171 -150 -234 -218 -222 -24 5 -38 15 -46
33 -14 30 -33 225 -29 303 1 30 2 104 0 166 -2 101 -4 114 -24 133 -28 25 -79
26 -102 1 -9 -10 -31 -72 -47 -137 -17 -66 -36 -141 -43 -169 -19 -72 -75
-184 -102 -202 -32 -21 -63 -8 -82 35 -14 31 -17 76 -18 265 -1 242 -3 254
-49 258 -60 6 -73 0 -90 -43 -9 -24 -21 -63 -25 -88 -45 -254 -126 -494 -184
-549 -31 -29 -74 -30 -97 -2 -18 22 -37 176 -25 206 10 26 -6 76 -29 91 -41
27 -68 9 -119 -76 -111 -182 -210 -250 -368 -250 -100 0 -145 24 -200 106 -31
44 -37 91 -13 100 9 4 30 0 48 -7 19 -8 64 -13 111 -12 169 3 283 104 302 266
12 99 -32 183 -119 229 -35 19 -58 23 -142 23 -89 0 -106 -3 -156 -28 -120
-59 -198 -163 -228 -309 -12 -57 -39 -114 -104 -224 -57 -96 -136 -144 -182
-110 -28 20 -32 141 -10 316 9 74 19 176 22 227 l5 92 -42 12 c-36 11 -46 10
-69 -2 -39 -22 -49 -53 -71 -220 -24 -182 -55 -259 -139 -351 -64 -70 -124
-97 -168 -76 -25 12 -28 18 -28 63 1 28 7 84 13 125 36 212 38 382 7 458 -15
34 -15 34 -70 30 -30 -3 -58 -8 -62 -12 -5 -4 -7 -74 -5 -154 2 -87 -2 -161
-8 -182 -6 -19 -17 -70 -25 -113 -24 -133 -100 -223 -196 -234 -38 -4 -47 -1
-69 22 -23 25 -25 34 -25 128 0 61 8 142 20 202 24 121 26 274 5 300 -33 40
-101 59 -170 48z m1797 -163 c36 -13 53 -46 53 -101 0 -54 -48 -106 -109 -120
-54 -12 -151 4 -168 28 -18 23 -16 38 7 81 34 63 59 87 117 108 47 16 62 17
100 4z m-2297 -29 c32 -23 37 -81 16 -191 -37 -198 -114 -298 -243 -316 -50
-6 -54 -5 -87 28 -76 76 -73 218 8 354 44 73 63 97 99 119 59 37 159 40 207 6z
m4460 -868 c0 -29 -45 -116 -75 -145 -31 -31 -60 -35 -89 -13 -19 14 -18 16 5
61 38 74 159 147 159 97z"/>
<path d="M16237 1403 c-35 -5 -52 -39 -73 -140 -37 -180 -44 -210 -59 -258 -9
-27 -22 -74 -30 -103 -18 -65 -66 -161 -93 -185 -20 -19 -70 -26 -90 -13 -20
12 -32 79 -32 184 0 89 -3 105 -20 122 -45 45 -86 13 -100 -76 -15 -92 -12
-176 10 -247 35 -114 126 -171 234 -147 72 16 145 112 197 260 l27 75 14 -35
c8 -19 20 -51 27 -72 22 -66 83 -108 156 -108 45 0 118 69 160 152 16 31 32
55 36 53 3 -3 9 -33 12 -68 24 -261 213 -332 393 -148 l59 60 26 -52 c19 -38
38 -60 74 -82 45 -28 55 -30 129 -27 114 4 199 49 279 151 15 18 21 20 33 11
8 -7 14 -19 14 -26 0 -8 10 -35 21 -60 27 -56 62 -75 140 -76 52 -1 66 4 116
37 32 20 77 58 100 83 l42 47 0 -30 c1 -29 -20 -235 -40 -395 -16 -139 -20
-235 -10 -250 6 -9 28 -14 62 -15 77 0 84 15 110 256 15 137 26 199 37 212 11
13 31 17 76 17 72 0 116 11 210 52 64 28 73 29 151 23 113 -10 172 8 246 74
l57 51 15 -38 c8 -21 33 -54 55 -74 98 -88 249 -74 367 34 33 30 60 47 65 42
13 -13 -6 -101 -29 -132 -10 -15 -57 -48 -104 -74 -163 -91 -226 -168 -227
-279 0 -47 5 -63 31 -98 16 -24 46 -49 64 -57 54 -22 151 -18 210 10 112 53
171 159 200 359 5 27 23 57 68 109 131 150 161 193 232 333 51 101 47 175 -11
175 -31 0 -71 -45 -112 -125 -42 -84 -129 -215 -142 -215 -14 0 -23 46 -16 76
14 54 54 531 49 573 -5 37 -11 45 -39 57 -85 36 -106 13 -128 -142 -35 -255
-47 -306 -88 -386 -55 -106 -135 -165 -211 -155 -55 7 -69 26 -78 99 -8 63 -5
99 29 341 21 149 19 177 -17 216 -66 71 -195 60 -236 -19 -21 -42 -7 -66 45
-75 53 -9 58 -30 38 -165 -14 -92 -22 -115 -64 -191 -27 -47 -58 -97 -70 -112
-48 -60 -144 -90 -144 -46 0 12 8 36 19 53 46 76 66 165 66 291 0 120 0 121
-34 173 -54 85 -114 121 -205 123 -110 2 -175 -23 -261 -101 -31 -28 -59 -50
-64 -50 -12 0 -18 18 -26 73 -12 79 -59 106 -125 72 -31 -16 -49 -68 -35 -102
4 -10 11 -76 15 -147 l9 -129 -36 -66 c-47 -84 -105 -171 -130 -194 -11 -10
-35 -22 -52 -27 -40 -11 -67 3 -81 44 -15 43 -12 196 6 364 19 169 19 209 -1
238 -15 24 -61 35 -94 22 -32 -11 -47 -59 -60 -193 -24 -244 -74 -378 -166
-447 -58 -44 -100 -55 -149 -38 -27 9 -38 19 -47 47 -14 44 -7 193 15 298 24
118 30 237 13 277 -21 49 -91 83 -153 74 -60 -8 -78 -19 -98 -61 -23 -47 -9
-71 47 -82 41 -8 42 -10 45 -51 2 -23 -4 -69 -12 -103 -9 -33 -16 -70 -16 -82
0 -20 -102 -210 -132 -247 -7 -9 -30 -29 -50 -44 -32 -24 -44 -27 -74 -22 -62
12 -67 39 -74 349 -5 267 -5 269 -29 288 -30 25 -75 24 -99 -1 -17 -18 -41
-100 -86 -290 -27 -113 -97 -230 -136 -230 -9 0 -24 8 -33 18 -32 36 -40 102
-39 313 0 146 -3 211 -11 222 -15 18 -43 25 -80 20z m2322 -179 c49 -35 66
-151 37 -260 -16 -61 -35 -91 -80 -124 -18 -13 -46 -48 -61 -78 -31 -59 -61
-79 -129 -88 -107 -15 -125 12 -116 176 6 106 9 120 40 179 86 160 229 251
309 195z m856 -873 c8 -13 -23 -89 -53 -129 -32 -45 -64 -59 -98 -43 -22 10
-25 16 -19 38 10 41 40 78 92 112 48 32 68 38 78 22z"/>
<path d="M20106 714 c-21 -22 -26 -36 -26 -79 0 -47 4 -56 31 -79 58 -49 150
-27 168 41 13 47 -1 107 -32 128 -12 8 -42 15 -68 15 -37 0 -52 -5 -73 -26z"/>
</g>
</svg>
